<?xml version="1.0" encoding="UTF-8"?><svg id="Layer_2" xmlns="http://www.w3.org/2000/svg" viewBox="0 0 489.43 149.35"><defs><style>.cls-1{fill:#d23f97;}.cls-2{fill:#5652a3;}</style></defs><g id="Layer_1-2"><g><g><g><path class="cls-2" d="M98.3,58.35v-.19c0-14.57,11.73-26.4,27.54-26.4s27.35,11.64,27.35,26.21v.19c0,14.57-11.73,26.4-27.54,26.4s-27.35-11.64-27.35-26.21Zm40.69,0v-.19c0-7.48-5.39-14.01-13.34-14.01s-13.15,6.34-13.15,13.82v.19c0,7.48,5.39,14,13.34,14s13.15-6.34,13.15-13.81Z"/><path class="cls-2" d="M156.01,32.7h14.38v10.22c2.93-7,7.67-11.54,16.18-11.17v15.05h-.76c-9.56,0-15.42,5.77-15.42,17.88v18.74h-14.38V32.7Z"/><path class="cls-2" d="M187.99,14.34h14.38V51.16l16.85-18.45h17.22l-19.31,19.97,19.97,30.75h-16.66l-12.96-20.82-5.11,5.4v15.42h-14.38V14.34Z"/><path class="cls-1" d="M236.43,50.49v-.19c0-18.73,14.01-34.25,33.5-34.25,12.02,0,19.21,4.26,25.83,10.5l-5.11,5.49c-5.58-5.3-11.83-9.08-20.82-9.08-14.67,0-25.64,11.92-25.64,27.16v.18c0,15.33,11.07,27.35,25.64,27.35,9.08,0,15.05-3.5,21.39-9.56l4.92,4.83c-6.91,7-14.48,11.64-26.5,11.64-19.12,0-33.22-15.05-33.22-34.07Z"/><path class="cls-1" d="M300.39,14.34h7.29v28.67c3.22-5.3,8.32-9.56,16.75-9.56,11.83,0,18.74,7.95,18.74,19.59v30.37h-7.29v-28.58c0-9.08-4.92-14.76-13.53-14.76s-14.67,6.15-14.67,15.33v28.01h-7.29V14.34Z"/><path class="cls-1" d="M348.07,59.11v-.19c0-14.1,9.94-25.46,23.47-25.46,14.48,0,22.8,11.54,22.8,25.83,0,.95,0,1.52-.09,2.37h-38.8c1.04,10.6,8.52,16.56,17.22,16.56,6.72,0,11.45-2.75,15.42-6.91l4.54,4.07c-4.92,5.49-10.88,9.18-20.16,9.18-13.44,0-24.42-10.32-24.42-25.45Zm38.89-2.84c-.76-8.9-5.87-16.66-15.61-16.66-8.52,0-14.95,7.1-15.9,16.66h31.51Z"/><path class="cls-1" d="M396.51,59.2v-.19c0-13.82,10.79-25.55,25.08-25.55,9.27,0,15.05,3.88,19.59,8.71l-4.83,5.11c-3.88-4.07-8.23-7.38-14.86-7.38-9.94,0-17.5,8.42-17.5,18.93v.19c0,10.6,7.76,19.02,17.98,19.02,6.25,0,11.07-3.12,14.95-7.29l4.64,4.35c-4.92,5.49-10.79,9.47-19.97,9.47-14.29,0-25.08-11.64-25.08-25.36Z"/><path class="cls-1" d="M446,14.34h7.29V62.04l26.4-27.54h9.08l-20.54,21.01,21.2,27.92h-8.71l-17.5-22.81-9.94,10.03v12.77h-7.29V14.34Z"/></g><g><g><path class="cls-2" d="M89.99,17.18l-13.72,44.85-11.02-33.41c-3.17,5.53-6.01,11.25-8.55,16.94l13.22,38.32h12.68L105.22,17.18h-15.24Z"/><path class="cls-2" d="M21.26,64.23c2.44-6.54,5.13-12.52,7.97-17.98l-8.89-29.07H4.73l15.82,46.67,.71,.37Z"/></g><path class="cls-1" d="M0,74.83l34.47,20.44S47.34,31.54,79.6,0c0,0-37.02,17.29-55.14,72.32l-14.42-7.51L0,74.83Z"/></g></g><g><path class="cls-2" d="M168.65,130.65c0-8.26,4.15-14.33,12.1-18.7l2.31,3.54c-6.2,4.11-9.13,8.65-9.13,15.16s2.93,11.01,9.13,15.16l-2.31,3.54c-7.95-4.37-12.1-10.44-12.1-18.7Z"/><path class="cls-2" d="M189.4,112.61h5.37v30.58h-5.37v-30.58Z"/><path class="cls-2" d="M202.33,120.12h5.29v3.54c1.49-2.14,3.62-4.02,7.21-4.02,5.2,0,8.21,3.49,8.21,8.82v14.72h-5.29v-13.11c0-3.58-1.79-5.64-4.94-5.64s-5.2,2.14-5.2,5.72v13.02h-5.29v-23.07Z"/><path class="cls-2" d="M231.2,108.33h4.24v40.45h-4.24v-40.45Z"/><path class="cls-2" d="M243.12,127.99v-.09c0-8.61,6.64-15.81,16.03-15.81s15.94,7.12,15.94,15.73v.09c0,8.61-6.64,15.81-16.03,15.81s-15.95-7.12-15.95-15.73Zm26.34,0v-.09c0-5.94-4.32-10.88-10.39-10.88s-10.31,4.85-10.31,10.79v.09c0,5.94,4.32,10.83,10.4,10.83s10.31-4.8,10.31-10.75Z"/><path class="cls-2" d="M280.73,134.8v-14.68h5.29v13.11c0,3.58,1.79,5.59,4.94,5.59s5.2-2.1,5.2-5.68v-13.02h5.33v23.07h-5.33v-3.58c-1.48,2.18-3.62,4.06-7.21,4.06-5.2,0-8.21-3.5-8.21-8.87Z"/><path class="cls-2" d="M309.16,136.81v-12.15h-2.93v-4.54h2.93v-6.33h5.29v6.33h6.2v4.54h-6.2v11.31c0,2.05,1.05,2.88,2.84,2.88,1.18,0,2.23-.26,3.28-.79v4.33c-1.31,.74-2.75,1.18-4.76,1.18-3.89,0-6.64-1.7-6.64-6.77Z"/><path class="cls-2" d="M324.8,145.81c6.2-4.15,9.13-8.65,9.13-15.16s-2.93-11.05-9.13-15.16l2.31-3.54c7.95,4.37,12.1,10.44,12.1,18.7s-4.15,14.33-12.1,18.7l-2.31-3.54Z"/></g></g></g></svg>